<svg xmlns="http://www.w3.org/2000/svg" width="30" height="30" viewBox="0 0 30 30">
    <g fill="none" fill-rule="evenodd">
        <circle cx="15" cy="15" r="15" fill="#0077B5"/>
        <g fill="#FFF">
            <path d="M11.288 22.734V11.965h-3.58v10.769h3.58zm-1.79-12.239c1.248 0 2.025-.827 2.025-1.86-.023-1.057-.777-1.86-2.001-1.86-1.225 0-2.025.803-2.025 1.86 0 1.033.777 1.86 1.978 1.86h.023zM13.268 22.734h3.58V16.72c0-.322.023-.643.117-.873.259-.643.848-1.31 1.836-1.31 1.296 0 1.814.988 1.814 2.436v5.76h3.579V16.56c0-3.307-1.766-4.846-4.121-4.846-1.93 0-2.779 1.079-3.25 1.814h.024v-1.562h-3.579c.047 1.01 0 10.769 0 10.769z"/>
        </g>
    </g>
</svg>
