<svg xmlns="http://www.w3.org/2000/svg" width="30" height="30" viewBox="0 0 30 30">
    <g fill="none" fill-rule="evenodd">
        <circle cx="15" cy="15" r="15" fill="#48C857"/>
        <g fill="#FFF" fill-rule="nonzero">
            <path d="M6.774 24.06c.47-1.515 1.014-2.956 1.51-4.443-3.296-5.766.784-12.257 6.31-12.796 5.218-.51 9.496 3.238 9.509 8.353.013 5.396-5.22 9.928-11.108 8.086-.445-.139-.994-.592-1.511-.622-.723-.042-1.67.476-2.4.711-.8.257-1.495.515-2.31.711zm4.888-3.021c4.754 2.885 10.447-.351 10.93-5.066.437-4.267-2.97-8.064-7.554-7.73-5.232.38-8.374 6.626-5.154 11.196a45.3 45.3 0 0 0-.8 2.4c.873-.253 1.678-.574 2.578-.8z"/>
            <path d="M13.528 11.175c.5 1.046 1.273 2.593 0 3.288.647 1.367 1.716 2.312 3.11 2.932.464-.306.768-.772 1.155-1.155.81.317 1.566.686 2.222 1.155.067 1.529-1.221 2.094-2.31 2.044-2.3-.106-5.459-3.01-6.221-5.154-.452-1.272.068-3.706 2.044-3.11z"/>
        </g>
    </g>
</svg>
